<svg width="100%" height="500" xmlns="http://www.w3.org/2000/svg">
  <!-- Define gradients -->
  <defs>
    <!-- Sunset sky gradient -->
    <linearGradient id="sunset-gradient" x1="0%" y1="0%" x2="0%" y2="100%">
      <stop offset="0%" style="stop-color: #ffcc99; stop-opacity: 1" />
      <stop offset="100%" style="stop-color: #ff9966; stop-opacity: 1" />
    </linearGradient>
    
    <!-- Mountain gradient -->
    <linearGradient id="mountain-gradient" x1="0%" y1="0%" x2="0%" y2="100%">
      <stop offset="0%" style="stop-color: #888888; stop-opacity: 1" />
      <stop offset="100%" style="stop-color: #444444; stop-opacity: 1" />
    </linearGradient>
    
    <!-- Farther mountains gradient -->
    <linearGradient id="far-mountain-gradient" x1="0%" y1="0%" x2="0%" y2="100%">
      <stop offset="0%" style="stop-color: #bbbbbb; stop-opacity: 1" />
      <stop offset="100%" style="stop-color: #666666; stop-opacity: 1" />
    </linearGradient>
    
    <!-- Sun gradient -->
    <radialGradient id="sun-gradient" cx="50%" cy="50%" r="50%" fx="50%" fy="50%">
      <stop offset="0%" style="stop-color: #ffcc33; stop-opacity: 1" />
      <stop offset="100%" style="stop-color: #ff9900; stop-opacity: 1" />
    </radialGradient>
    
    <!-- Hill gradient -->
    <linearGradient id="hill-gradient" x1="0%" y1="0%" x2="0%" y2="100%">
      <stop offset="0%" style="stop-color: #99cc66; stop-opacity: 1" />
      <stop offset="100%" style="stop-color: #669933; stop-opacity: 1" />
    </linearGradient>
    
    <!-- Cloud gradient -->
    <linearGradient id="cloud-gradient" x1="0%" y1="0%" x2="100%" y2="0%">
      <stop offset="0%" style="stop-color: #ffffff; stop-opacity: 1" />
      <stop offset="100%" style="stop-color: #cccccc; stop-opacity: 1" />
    </linearGradient>
  </defs>
  
  <!-- Sky background with sunset gradient -->
  <rect width="100%" height="100%" fill="url(#sunset-gradient)" />
  
  <!-- Sun with gradient -->
  <circle cx="600" cy="150" r="70" fill="url(#sun-gradient)" />
  
  <!-- Clouds -->
  <ellipse cx="200" cy="80" rx="120" ry="40" fill="url(#cloud-gradient)" opacity="0.8"/>
  <ellipse cx="300" cy="100" rx="100" ry="30" fill="url(#cloud-gradient)" opacity="0.8"/>
  <ellipse cx="900" cy="60" rx="130" ry="50" fill="url(#cloud-gradient)" opacity="0.7"/>
  
  <!-- Distant mountains with gradient -->
  <polygon points="100,400 300,200 500,400" fill="url(#far-mountain-gradient)" />
  <polygon points="400,400 600,220 800,400" fill="url(#far-mountain-gradient)" />
  <polygon points="700,400 900,250 1100,400" fill="url(#far-mountain-gradient)" />
  
  <!-- Closer mountains with gradient -->
  <polygon points="50,450 250,300 450,450" fill="url(#mountain-gradient)" />
  <polygon points="350,450 550,280 750,450" fill="url(#mountain-gradient)" />
  <polygon points="650,450 850,310 1050,450" fill="url(#mountain-gradient)" />
  
  <!-- Hills with gradient -->
  <ellipse cx="400" cy="500" rx="600" ry="200" fill="url(#hill-gradient)" />
  <ellipse cx="600" cy="480" rx="500" ry="150" fill="url(#hill-gradient)" />
  
  <!-- Pine trees -->
  <!-- Pine Tree 1 -->
  <polygon points="200,420 225,370 250,420" fill="darkgreen" />
  <polygon points="210,390 225,350 240,390" fill="darkgreen" />
  <rect x="220" y="420" width="10" height="20" fill="saddlebrown" />
  
  <!-- Pine Tree 2 -->
  <polygon points="300,430 330,370 360,430" fill="darkgreen" />
  <polygon points="315,400 330,350 345,400" fill="darkgreen" />
  <rect x="325" y="430" width="10" height="20" fill="saddlebrown" />
  
  <!-- Pine Tree 3 -->
  <polygon points="750,400 775,340 800,400" fill="darkgreen" />
  <polygon points="765,370 775,320 785,370" fill="darkgreen" />
  <rect x="770" y="400" width="10" height="25" fill="saddlebrown" />
  
  <!-- Foreground with detailed grass -->
  <path d="M0 450 Q 50 470 100 450 T 200 450 T 300 450 T 400 450 T 500 450 T 600 450 T 700 450 T 800 450 T 900 450 T 1000 450 T 1100 450 T 1200 450" fill="darkgreen" />
</svg>
